<svg xmlns="http://www.w3.org/2000/svg" viewBox="0 0 240 60" fill="none">
  <path d="M30 10H10v40h20c5.523 0 10-4.477 10-10V20c0-5.523-4.477-10-10-10z" fill="#FF5722"/>
  <path d="M10 10H0v40h10V10z" fill="#FF8A65"/>
  <path d="M50 25H40v15h10V25z" fill="#FF8A65"/>
  <path d="M70 10H60v40h10V10z" fill="#FF5722"/>
  <path d="M90 10H80v40h10V10z" fill="#FF5722"/>
  <path d="M110 30c0-11.046-8.954-20-20-20v40c11.046 0 20-8.954 20-20z" fill="#FF8A65"/>
  <path d="M130 10h-20v10h10v30h10V10z" fill="#FF5722"/>
  <path d="M130 20h10v10h-10V20z" fill="#FF8A65"/>
  <path d="M160 10h-20v40h10V30h10c5.523 0 10-4.477 10-10s-4.477-10-10-10z" fill="#FF5722"/>
  <path d="M170 30h10v20h10V30h10v-10h-30v10z" fill="#FF8A65"/>
  <path d="M220 20v-10h-20v40h20v-10h-10V30h10v-10h-10V20h10z" fill="#FF5722"/>
</svg> 